<mxfile host="app.diagrams.net" modified="2022-07-11T14:46:21.177Z" agent="5.0 (Windows NT 10.0; Win64; x64) AppleWebKit/537.36 (KHTML, like Gecko) Chrome/103.0.0.0 Safari/537.36" etag="JGsp0VHV_plAikEyMKI7" version="18.0.2" type="github">
  <diagram id="uviV5FYBAnu0ZRMX0xin" name="第 1 页">
    <mxGraphModel dx="866" dy="522" grid="1" gridSize="10" guides="1" tooltips="1" connect="1" arrows="1" fold="1" page="1" pageScale="1" pageWidth="827" pageHeight="1169" math="0" shadow="0">
      <root>
        <mxCell id="0" />
        <mxCell id="1" parent="0" />
        <mxCell id="EUJA6euTQluOgph0tRaZ-27" style="edgeStyle=orthogonalEdgeStyle;rounded=0;orthogonalLoop=1;jettySize=auto;html=1;exitX=0.5;exitY=1;exitDx=0;exitDy=0;entryX=0.178;entryY=0.043;entryDx=0;entryDy=0;entryPerimeter=0;fontSize=17;curved=1;dashed=1;" edge="1" parent="1" source="EUJA6euTQluOgph0tRaZ-1" target="EUJA6euTQluOgph0tRaZ-26">
          <mxGeometry relative="1" as="geometry" />
        </mxCell>
        <mxCell id="EUJA6euTQluOgph0tRaZ-1" value="" style="rounded=1;whiteSpace=wrap;html=1;strokeColor=#9673a6;strokeWidth=4;fillColor=#e1d5e7;" vertex="1" parent="1">
          <mxGeometry x="230" y="140" width="50" height="50" as="geometry" />
        </mxCell>
        <mxCell id="EUJA6euTQluOgph0tRaZ-2" value="" style="rounded=1;whiteSpace=wrap;html=1;" vertex="1" parent="1">
          <mxGeometry x="280" y="140" width="50" height="50" as="geometry" />
        </mxCell>
        <mxCell id="EUJA6euTQluOgph0tRaZ-3" value="" style="rounded=1;whiteSpace=wrap;html=1;fillColor=#e1d5e7;strokeColor=#9673a6;" vertex="1" parent="1">
          <mxGeometry x="330" y="140" width="50" height="50" as="geometry" />
        </mxCell>
        <mxCell id="EUJA6euTQluOgph0tRaZ-4" value="" style="rounded=1;whiteSpace=wrap;html=1;" vertex="1" parent="1">
          <mxGeometry x="380" y="140" width="50" height="50" as="geometry" />
        </mxCell>
        <mxCell id="EUJA6euTQluOgph0tRaZ-5" value="" style="rounded=1;whiteSpace=wrap;html=1;fillColor=#e1d5e7;strokeColor=#9673a6;" vertex="1" parent="1">
          <mxGeometry x="430" y="140" width="50" height="50" as="geometry" />
        </mxCell>
        <mxCell id="EUJA6euTQluOgph0tRaZ-24" style="edgeStyle=orthogonalEdgeStyle;rounded=0;orthogonalLoop=1;jettySize=auto;html=1;exitX=0.5;exitY=1;exitDx=0;exitDy=0;entryX=0.5;entryY=0;entryDx=0;entryDy=0;fontSize=17;" edge="1" parent="1" source="EUJA6euTQluOgph0tRaZ-6" target="EUJA6euTQluOgph0tRaZ-20">
          <mxGeometry relative="1" as="geometry" />
        </mxCell>
        <mxCell id="EUJA6euTQluOgph0tRaZ-6" value="" style="rounded=1;whiteSpace=wrap;html=1;labelBorderColor=default;strokeWidth=3;strokeColor=#FF0000;fillColor=#e1d5e7;" vertex="1" parent="1">
          <mxGeometry x="480" y="140" width="50" height="50" as="geometry" />
        </mxCell>
        <mxCell id="EUJA6euTQluOgph0tRaZ-7" value="" style="rounded=1;whiteSpace=wrap;html=1;" vertex="1" parent="1">
          <mxGeometry x="530" y="140" width="50" height="50" as="geometry" />
        </mxCell>
        <mxCell id="EUJA6euTQluOgph0tRaZ-8" value="" style="rounded=1;whiteSpace=wrap;html=1;" vertex="1" parent="1">
          <mxGeometry x="580" y="140" width="50" height="50" as="geometry" />
        </mxCell>
        <mxCell id="EUJA6euTQluOgph0tRaZ-9" value="" style="rounded=1;whiteSpace=wrap;html=1;" vertex="1" parent="1">
          <mxGeometry x="630" y="140" width="50" height="50" as="geometry" />
        </mxCell>
        <mxCell id="EUJA6euTQluOgph0tRaZ-10" value="" style="rounded=1;whiteSpace=wrap;html=1;fillColor=#e1d5e7;strokeColor=#9673a6;" vertex="1" parent="1">
          <mxGeometry x="680" y="140" width="50" height="50" as="geometry" />
        </mxCell>
        <mxCell id="EUJA6euTQluOgph0tRaZ-11" value="" style="rounded=1;whiteSpace=wrap;html=1;" vertex="1" parent="1">
          <mxGeometry x="730" y="140" width="50" height="50" as="geometry" />
        </mxCell>
        <mxCell id="EUJA6euTQluOgph0tRaZ-12" value="" style="rounded=1;whiteSpace=wrap;html=1;" vertex="1" parent="1">
          <mxGeometry x="780" y="140" width="50" height="50" as="geometry" />
        </mxCell>
        <mxCell id="EUJA6euTQluOgph0tRaZ-13" value="" style="rounded=1;whiteSpace=wrap;html=1;fillColor=#e1d5e7;strokeColor=#9673a6;" vertex="1" parent="1">
          <mxGeometry x="830" y="140" width="50" height="50" as="geometry" />
        </mxCell>
        <mxCell id="EUJA6euTQluOgph0tRaZ-14" value="" style="rounded=1;whiteSpace=wrap;html=1;" vertex="1" parent="1">
          <mxGeometry x="880" y="140" width="50" height="50" as="geometry" />
        </mxCell>
        <mxCell id="EUJA6euTQluOgph0tRaZ-15" value="" style="rounded=1;whiteSpace=wrap;html=1;" vertex="1" parent="1">
          <mxGeometry x="930" y="140" width="50" height="50" as="geometry" />
        </mxCell>
        <mxCell id="EUJA6euTQluOgph0tRaZ-16" value="" style="rounded=1;whiteSpace=wrap;html=1;" vertex="1" parent="1">
          <mxGeometry x="980" y="140" width="50" height="50" as="geometry" />
        </mxCell>
        <mxCell id="EUJA6euTQluOgph0tRaZ-30" style="edgeStyle=orthogonalEdgeStyle;curved=1;rounded=0;orthogonalLoop=1;jettySize=auto;html=1;entryX=0;entryY=0.5;entryDx=0;entryDy=0;dashed=1;fontSize=17;" edge="1" parent="1" source="EUJA6euTQluOgph0tRaZ-17" target="EUJA6euTQluOgph0tRaZ-28">
          <mxGeometry relative="1" as="geometry" />
        </mxCell>
        <mxCell id="EUJA6euTQluOgph0tRaZ-17" value="Entry 类型的 table 数组" style="text;html=1;align=center;verticalAlign=middle;resizable=0;points=[];autosize=1;strokeColor=none;fillColor=none;fontSize=17;fontStyle=1" vertex="1" parent="1">
          <mxGeometry x="80" y="95" width="200" height="30" as="geometry" />
        </mxCell>
        <mxCell id="EUJA6euTQluOgph0tRaZ-18" value="capacity = 16 = table.length" style="text;html=1;align=center;verticalAlign=middle;resizable=0;points=[];autosize=1;strokeColor=none;fillColor=none;fontSize=17;fontStyle=1" vertex="1" parent="1">
          <mxGeometry x="560" y="95" width="240" height="30" as="geometry" />
        </mxCell>
        <mxCell id="EUJA6euTQluOgph0tRaZ-19" value="load factor = 0.75" style="text;html=1;align=center;verticalAlign=middle;resizable=0;points=[];autosize=1;strokeColor=none;fillColor=none;fontSize=17;fontStyle=1" vertex="1" parent="1">
          <mxGeometry x="830" y="95" width="150" height="30" as="geometry" />
        </mxCell>
        <mxCell id="EUJA6euTQluOgph0tRaZ-25" style="edgeStyle=orthogonalEdgeStyle;rounded=0;orthogonalLoop=1;jettySize=auto;html=1;exitX=0.5;exitY=1;exitDx=0;exitDy=0;entryX=0.5;entryY=0;entryDx=0;entryDy=0;fontSize=17;" edge="1" parent="1" source="EUJA6euTQluOgph0tRaZ-20" target="EUJA6euTQluOgph0tRaZ-21">
          <mxGeometry relative="1" as="geometry" />
        </mxCell>
        <mxCell id="EUJA6euTQluOgph0tRaZ-20" value="" style="rounded=1;whiteSpace=wrap;html=1;fillColor=#e1d5e7;strokeColor=#9673a6;" vertex="1" parent="1">
          <mxGeometry x="480" y="230" width="50" height="50" as="geometry" />
        </mxCell>
        <mxCell id="EUJA6euTQluOgph0tRaZ-21" value="" style="rounded=1;whiteSpace=wrap;html=1;fillColor=#e1d5e7;strokeColor=#9673a6;" vertex="1" parent="1">
          <mxGeometry x="480" y="320" width="50" height="50" as="geometry" />
        </mxCell>
        <mxCell id="EUJA6euTQluOgph0tRaZ-26" value="Entry 存储着 Key、Value、hash、next" style="text;html=1;align=center;verticalAlign=middle;resizable=0;points=[];autosize=1;strokeColor=none;fillColor=none;fontSize=17;fontStyle=1" vertex="1" parent="1">
          <mxGeometry x="95" y="260" width="320" height="30" as="geometry" />
        </mxCell>
        <mxCell id="EUJA6euTQluOgph0tRaZ-28" value="" style="rounded=0;whiteSpace=wrap;html=1;labelBorderColor=default;fontSize=17;strokeColor=#6c8ebf;strokeWidth=2;labelBackgroundColor=none;fillColor=#dae8fc;opacity=40;" vertex="1" parent="1">
          <mxGeometry x="210" y="135" width="840" height="60" as="geometry" />
        </mxCell>
        <mxCell id="EUJA6euTQluOgph0tRaZ-31" value="" style="rounded=0;whiteSpace=wrap;html=1;labelBackgroundColor=none;labelBorderColor=default;fontSize=17;strokeColor=#b85450;strokeWidth=2;opacity=40;fillColor=#f8cecc;" vertex="1" parent="1">
          <mxGeometry x="475" y="127.5" width="60" height="255" as="geometry" />
        </mxCell>
        <mxCell id="EUJA6euTQluOgph0tRaZ-33" style="edgeStyle=orthogonalEdgeStyle;curved=1;rounded=0;orthogonalLoop=1;jettySize=auto;html=1;entryX=0.997;entryY=0.594;entryDx=0;entryDy=0;entryPerimeter=0;dashed=1;fontSize=17;" edge="1" parent="1" source="EUJA6euTQluOgph0tRaZ-32" target="EUJA6euTQluOgph0tRaZ-31">
          <mxGeometry relative="1" as="geometry" />
        </mxCell>
        <mxCell id="EUJA6euTQluOgph0tRaZ-32" value="Entry 类型的链表" style="text;html=1;align=center;verticalAlign=middle;resizable=0;points=[];autosize=1;strokeColor=none;fillColor=none;fontSize=17;fontStyle=1" vertex="1" parent="1">
          <mxGeometry x="590" y="270" width="150" height="30" as="geometry" />
        </mxCell>
        <mxCell id="EUJA6euTQluOgph0tRaZ-34" value="threshold = load factor × capacity = 16 × 0.75 = 12" style="text;html=1;align=center;verticalAlign=middle;resizable=0;points=[];autosize=1;strokeColor=none;fillColor=none;fontSize=17;fontStyle=1" vertex="1" parent="1">
          <mxGeometry x="555" y="220" width="420" height="30" as="geometry" />
        </mxCell>
        <mxCell id="EUJA6euTQluOgph0tRaZ-36" value="" style="rounded=1;whiteSpace=wrap;html=1;fillColor=#e1d5e7;strokeColor=#9673a6;" vertex="1" parent="1">
          <mxGeometry x="230" y="400" width="50" height="50" as="geometry" />
        </mxCell>
        <mxCell id="EUJA6euTQluOgph0tRaZ-37" value="表示此哈希桶有存储着元素" style="text;html=1;align=center;verticalAlign=middle;resizable=0;points=[];autosize=1;strokeColor=none;fillColor=none;fontSize=17;" vertex="1" parent="1">
          <mxGeometry x="290" y="410" width="220" height="30" as="geometry" />
        </mxCell>
        <mxCell id="EUJA6euTQluOgph0tRaZ-38" value="" style="rounded=1;whiteSpace=wrap;html=1;" vertex="1" parent="1">
          <mxGeometry x="555" y="400" width="50" height="50" as="geometry" />
        </mxCell>
        <mxCell id="EUJA6euTQluOgph0tRaZ-39" value="&lt;span style=&quot;color: rgb(0, 0, 0); font-family: Helvetica; font-size: 17px; font-style: normal; font-variant-ligatures: normal; font-variant-caps: normal; font-weight: 400; letter-spacing: normal; orphans: 2; text-align: center; text-indent: 0px; text-transform: none; widows: 2; word-spacing: 0px; -webkit-text-stroke-width: 0px; background-color: rgb(248, 249, 250); text-decoration-thickness: initial; text-decoration-style: initial; text-decoration-color: initial; float: none; display: inline !important;&quot;&gt;表示此哈希桶为空&lt;/span&gt;" style="text;whiteSpace=wrap;html=1;fontSize=17;" vertex="1" parent="1">
          <mxGeometry x="640" y="405" width="230" height="40" as="geometry" />
        </mxCell>
        <mxCell id="EUJA6euTQluOgph0tRaZ-40" value="" style="rounded=1;whiteSpace=wrap;html=1;labelBorderColor=default;strokeWidth=3;strokeColor=#FF0000;fillColor=#e1d5e7;" vertex="1" parent="1">
          <mxGeometry x="230" y="490" width="50" height="50" as="geometry" />
        </mxCell>
        <mxCell id="EUJA6euTQluOgph0tRaZ-41" value="表示此哈希桶为存储的元素是链表表头" style="text;html=1;align=center;verticalAlign=middle;resizable=0;points=[];autosize=1;strokeColor=none;fillColor=none;fontSize=17;" vertex="1" parent="1">
          <mxGeometry x="290" y="500" width="300" height="30" as="geometry" />
        </mxCell>
      </root>
    </mxGraphModel>
  </diagram>
</mxfile>
